<?xml version="1.0" encoding="UTF-8" standalone="no"?>
<svg width="80px" height="16px" viewBox="0 0 80 16" version="1.1" xmlns="http://www.w3.org/2000/svg" xmlns:xlink="http://www.w3.org/1999/xlink">
    <!-- Generator: Sketch 3.6.1 (26313) - http://www.bohemiancoding.com/sketch -->
    <title>icon</title>
    <desc>Created with Sketch.</desc>
    <defs></defs>
    <g id="Page-1" stroke="none" stroke-width="1" fill="none" fill-rule="evenodd">
        <g id="About" transform="translate(-800.000000, -555.000000)" fill="#000000">
            <g id="about" transform="translate(33.000000, 137.000000)">
                <g id="p" transform="translate(654.000000, 418.000000)">
                    <g id="icon" transform="translate(113.000000, 0.000000)">
                        <path d="M28.4124444,8.584 L6.99377778,8.584 C6.67022222,8.584 6.40888889,8.32266667 6.40888889,8 C6.40888889,7.67644444 6.67022222,7.41511111 6.99377778,7.41511111 L28.4124444,7.41511111 C28.7351111,7.41511111 28.9982222,7.67644444 28.9982222,8 C28.9982222,8.32266667 28.7351111,8.584 28.4124444,8.584 L28.4124444,8.584 Z" id="Shape" fill-opacity="0.54"></path>
                        <path d="M72.3546667,8.584 L50.9368889,8.584 C50.6133333,8.584 50.3511111,8.32266667 50.3511111,8 C50.3511111,7.67644444 50.6133333,7.41511111 50.9368889,7.41511111 L72.3555556,7.41511111 C72.6791111,7.41511111 72.9404444,7.67644444 72.9404444,8 C72.9404444,8.32266667 72.6791111,8.584 72.3546667,8.584 L72.3546667,8.584 Z" id="Shape" fill-opacity="0.54"></path>
                        <path d="M35.168,15.3404444 C31.1208889,15.3404444 27.8275556,12.048 27.8275556,8 C27.8275556,3.952 31.1208889,0.659555556 35.168,0.659555556 C35.4906667,0.659555556 35.7537778,0.920888889 35.7537778,1.24355556 C35.7537778,1.56622222 35.4906667,1.82844444 35.168,1.82844444 C31.7671111,1.82844444 28.9982222,4.59555556 28.9982222,7.99911111 C28.9982222,11.4017778 31.7671111,14.1697778 35.168,14.1697778 C35.4906667,14.1697778 35.7537778,14.4311111 35.7537778,14.7546667 C35.7546667,15.0791111 35.4915556,15.3404444 35.168,15.3404444 L35.168,15.3404444 Z" id="Shape" fill-opacity="0.54"></path>
                        <path d="M44.5857778,15.6791111 C44.2622222,15.6791111 44,15.4177778 44,15.0951111 C44,14.7715556 44.2622222,14.5102222 44.5857778,14.5102222 C47.9857778,14.5102222 50.7555556,11.7422222 50.7555556,8.33955556 C50.7555556,4.936 47.9857778,2.16888889 44.5857778,2.16888889 C44.2622222,2.16888889 44,1.90666667 44,1.584 C44,1.26133333 44.2622222,1 44.5857778,1 C48.6328889,1 51.9253333,4.29244444 51.9253333,8.34044444 C51.9253333,12.3884444 48.6328889,15.6791111 44.5857778,15.6791111 L44.5857778,15.6791111 Z" id="Shape" fill-opacity="0.54"></path>
                        <path d="M75.616,12.2337778 C73.6222222,12.2337778 72,10.6106667 72,8.61777778 C72,6.62311111 73.6222222,5 75.616,5 C77.6106667,5 79.2328889,6.62311111 79.2328889,8.61777778 C79.2328889,10.6106667 77.6106667,12.2337778 75.616,12.2337778 L75.616,12.2337778 Z M75.616,5.976 C74.1591111,5.976 72.976,7.16088889 72.976,8.61777778 C72.976,10.0728889 74.1591111,11.2568889 75.616,11.2568889 C77.0711111,11.2568889 78.256,10.0728889 78.256,8.61777778 C78.256,7.16088889 77.0711111,5.976 75.616,5.976 L75.616,5.976 Z" id="Shape" fill-opacity="0.54"></path>
                        <g id="Group" transform="translate(0.000000, 5.000000)">
                            <path d="M6.99377778,3.55644444 C6.99377778,5.28266667 5.592,6.68355556 3.86488889,6.68355556 C2.13688889,6.68355556 0.735111111,5.28355556 0.735111111,3.55644444 C0.735111111,1.82666667 2.13688889,0.426666667 3.86488889,0.426666667 C5.592,0.425777778 6.99377778,1.82666667 6.99377778,3.55644444 L6.99377778,3.55644444 Z" id="Shape" fill-opacity="0.54"></path>
                            <path d="M3.86577778,6.84622222 C2.04977778,6.84622222 0.573333333,5.37066667 0.573333333,3.55644444 C0.573333333,1.74044444 2.04977778,0.264 3.86577778,0.264 C5.68,0.264 7.15644444,1.74044444 7.15644444,3.55644444 C7.15644444,5.37066667 5.68,6.84622222 3.86577778,6.84622222 L3.86577778,6.84622222 Z M3.86577778,0.589333333 C2.22933333,0.589333333 0.899555556,1.92 0.899555556,3.55644444 C0.899555556,5.19022222 2.22933333,6.52088889 3.86577778,6.52088889 C5.50044444,6.52088889 6.83111111,5.19022222 6.83111111,3.55644444 C6.83111111,1.92 5.50044444,0.589333333 3.86577778,0.589333333 L3.86577778,0.589333333 Z" id="Shape" fill-opacity="0.38"></path>
                        </g>
                        <path d="M40.0219918,2 L40.0219918,6.40586447 L43,6.40586447 L40.0219918,14.041838 L40.0219918,9.59091722 L37,9.59091722 L40.0219918,2 Z" id="Shape" fill-opacity="0.54"></path>
                    </g>
                </g>
            </g>
        </g>
    </g>
</svg>