<?xml version="1.0" encoding="UTF-8" standalone="no"?>
<svg width="36px" height="40px" viewBox="0 0 36 40" version="1.1" xmlns="http://www.w3.org/2000/svg" xmlns:xlink="http://www.w3.org/1999/xlink">
    <!-- Generator: Sketch 3.6.1 (26313) - http://www.bohemiancoding.com/sketch -->
    <title>love</title>
    <desc>Created with Sketch.</desc>
    <defs></defs>
    <g id="Page-1" stroke="none" stroke-width="1" fill="none" fill-rule="evenodd" fill-opacity="0.54">
        <g id="Now" transform="translate(-526.000000, -660.000000)" fill="#000000">
            <g id="icons" transform="translate(457.000000, 660.000000)">
                <g id="love" transform="translate(69.000000, 0.000000)">
                    <path d="M33.481,29.0545 C31.482,26.255 25.2225,17.69 24.189,16.2765 L24.189,5.25 C24.189,5.224 24.184,5.199 24.181,5.174 C24.41,4.784 24.539,4.366 24.539,3.927 C24.539,1.771 21.562,0.0825 17.7615,0.0825 C13.961,0.0825 10.984,1.771 10.984,3.927 C10.984,4.263 11.064,4.586 11.201,4.895 L11.198,16.276 C10.165,17.69 3.906,26.255 1.906,29.054 C0.6985,30.745 -0.0285,32.1635 0.349,33.5915 C0.703,34.932 2.0015,36.059 4.5595,37.2445 C6.7625,38.266 12.537,39.6815 17.648,39.6815 L17.7405,39.6815 C22.85,39.6815 28.625,38.2665 30.8295,37.2445 C33.387,36.0585 34.6855,34.932 35.0395,33.5915 C35.416,32.1635 34.689,30.745 33.481,29.0545 L33.481,29.0545 Z M17.7615,1.5825 C20.782,1.5825 23.039,2.8205 23.039,3.927 C23.039,5.0335 20.782,6.2715 17.7615,6.2715 C14.741,6.2715 12.484,5.0335 12.484,3.927 C12.484,2.8205 14.741,1.5825 17.7615,1.5825 L17.7615,1.5825 Z M33.5885,33.2085 C33.3655,34.054 32.256,34.929 30.198,35.8835 C28.1715,36.8225 22.569,38.181 17.74,38.181 L17.6475,38.181 C12.817,38.181 7.2155,36.8225 5.19,35.8835 C3.1315,34.929 2.022,34.054 1.799,33.2085 C1.6035,32.4705 1.9885,31.5195 3.1265,29.9265 C5.293,26.8935 12.4815,17.063 12.5535,16.964 C12.6475,16.8355 12.698,16.6805 12.698,16.5215 L12.7005,6.503 C13.933,7.284 15.7265,7.7715 17.7615,7.7715 C19.724,7.7715 21.462,7.319 22.6885,6.5865 L22.6885,16.521 C22.6885,16.68 22.7395,16.835 22.833,16.9635 C22.9055,17.0625 30.0935,26.893 32.26,29.926 C33.3985,31.5195 33.783,32.4705 33.5885,33.2085 L33.5885,33.2085 Z" id="Shape"></path>
                    <path d="M25.4125,23.454 C25.156,23.1385 24.6945,23.085 24.3715,23.334 C23.007,24.39 21.8745,24.8815 20.809,24.8815 C19.5935,24.8815 18.377,24.249 16.9235,23.299 C15.704,22.502 14.511,22.098 13.3775,22.098 C11.3515,22.098 10.255,23.393 10.179,23.4875 L4.667,31.1145 C4.171,31.8015 4.002,32.3885 4.151,32.91 C4.346,33.5915 4.989,33.8545 5.373,34.0115 C5.4435,34.0405 5.511,34.0675 5.5715,34.0965 C8.223,35.378 13.691,36.75 17.6055,36.75 L17.6975,36.75 C20.2635,36.7365 24.034,35.9825 28.042,34.6825 C29.7815,34.1185 31.008,33.534 31.341,32.5135 C31.536,31.9175 31.3915,31.2785 30.9115,30.6145 C28.376,27.104 25.442,23.49 25.4125,23.454 L25.4125,23.454 Z M12.2505,26.1125 C12.2505,25.7835 12.517,25.5165 12.846,25.5165 C13.176,25.5165 13.4425,25.7835 13.4425,26.1125 C13.4425,26.4415 13.176,26.7085 12.846,26.7085 C12.517,26.7085 12.2505,26.4415 12.2505,26.1125 L12.2505,26.1125 Z M19.114,30.7805 L16.882,33.831 C16.8025,33.94 16.645,33.9695 16.532,33.8985 L13.333,31.886 C12.48,31.3495 12.27,30.2505 12.865,29.437 C13.4395,28.6525 14.578,28.514 15.4315,28.9965 L15.819,29.215 L16.098,28.869 C16.7145,28.107 17.823,27.8145 18.6465,28.3325 C19.4995,28.8665 19.7095,29.9675 19.114,30.7805 L19.114,30.7805 Z M23.6235,29.7085 C23.1715,29.7085 22.8045,29.342 22.8045,28.8895 C22.8045,28.437 23.171,28.07 23.6235,28.07 C24.076,28.07 24.443,28.4365 24.443,28.8895 C24.443,29.342 24.076,29.7085 23.6235,29.7085 L23.6235,29.7085 Z" id="Shape"></path>
                </g>
            </g>
        </g>
    </g>
</svg>