<?xml version="1.0" encoding="UTF-8" standalone="no"?>
<svg width="44px" height="40px" viewBox="0 0 44 40" version="1.1" xmlns="http://www.w3.org/2000/svg" xmlns:xlink="http://www.w3.org/1999/xlink">
    <!-- Generator: Sketch 3.6.1 (26313) - http://www.bohemiancoding.com/sketch -->
    <title>react</title>
    <desc>Created with Sketch.</desc>
    <defs></defs>
    <g id="Page-1" stroke="none" stroke-width="1" fill="none" fill-rule="evenodd">
        <g id="Now" transform="translate(-457.000000, -660.000000)">
            <g id="icons" transform="translate(457.000000, 660.000000)">
                <g id="react">
                    <g id="Group">
                        <path d="M0.128543883,19.5822152 C0.128543883,22.8611541 3.32669373,25.9221768 8.36884091,27.6475355 C7.36197118,32.7222928 8.18839214,36.8125128 10.9487283,38.4063017 C13.7860682,40.0443941 18.013005,38.9104916 22.0249418,35.3995595 C25.9356588,38.7687585 29.8881356,40.0947067 32.6458998,38.4963883 C35.4804653,36.8535404 36.3426789,32.485903 35.3079634,27.2527471 C40.5596267,25.5144266 43.497262,22.9043154 43.497262,19.5822152 C43.497262,16.3792954 40.2931783,13.6083383 35.3190382,11.8940046 C36.4329494,6.44457092 35.4891,2.45360355 32.6145027,0.793995466 C29.8430896,-0.805969494 25.8447305,0.588563086 21.8764988,4.04599942 C17.7482279,0.376203976 13.7893206,-0.744230627 10.91751,0.92021454 C8.14879052,2.52473062 7.35871186,6.68928124 8.36884089,11.8579885 C3.49694821,13.5585664 0.128543883,16.3921043 0.128543883,19.5822152 L0.128543883,19.5822152 Z" id="Shape" fill="#FFFFFF"></path>
                        <path d="M34.2655488,13.5964364 C33.8660001,13.4587534 33.451986,13.3284831 33.0257001,13.2052822 C33.0957653,12.9190031 33.1600713,12.6364304 33.2172477,12.3586622 C34.1557895,7.79762108 33.5421382,4.12321462 31.4467014,2.91344366 C29.4374405,1.7534335 26.1514476,2.96292993 22.832753,5.85441018 C22.5136214,6.13245297 22.1935984,6.42683103 21.8737128,6.73534801 C21.6605698,6.53122576 21.4477698,6.33396707 21.2355182,6.14528783 C17.7574292,3.05352889 14.2711819,1.75061944 12.1778019,2.96389082 C10.1704606,4.12726413 9.57600515,7.58155624 10.4208298,11.9040886 C10.5024123,12.3215989 10.5977748,12.7479633 10.7056145,13.1814657 C10.2122117,13.3216882 9.73587946,13.4711765 9.28011426,13.6302052 C5.20242805,15.0535014 2.5982318,17.2841582 2.5982318,19.5979326 C2.5982318,21.9876182 5.39383846,24.3845104 9.64106548,25.8378689 C9.97623938,25.9525591 10.3240277,26.0610033 10.6824423,26.1639566 C10.5661016,26.6328065 10.4649118,27.0922531 10.37997,27.5403749 C9.57442834,31.7878886 10.203505,35.1605729 12.2054988,36.3166023 C14.2733757,37.5104499 17.7438549,36.283314 21.1232221,33.3259436 C21.3903193,33.0921707 21.6583761,32.844259 21.9269127,32.5844048 C22.2749755,32.9199641 22.6224893,33.2375409 22.9681526,33.5354194 C26.2414626,36.35545 29.4743927,37.4941833 31.4745355,36.3349281 C33.5403556,35.1376486 34.2117319,31.5145816 33.3401013,27.1065294 C33.2735327,26.7698717 33.1960636,26.4259388 33.1090652,26.0758973 C33.3527843,26.0037611 33.5920474,25.9292916 33.825346,25.8518706 C38.2407428,24.3872558 41.1135441,22.0195336 41.1135441,19.5979326 C41.1135441,17.2757847 38.4253659,15.0300967 34.2655488,13.5964364 L34.2655488,13.5964364 L34.2655488,13.5964364 L34.2655488,13.5964364 Z" id="Shape" fill-opacity="0.54" fill="#000000"></path>
                        <path d="M33.3078798,24.2882833 C33.0972735,24.3580855 32.8811826,24.4255544 32.6609784,24.4909641 C32.1735401,22.9460456 31.5156695,21.3032526 30.7106078,19.6059631 C31.4788546,17.9490998 32.1112904,16.3273094 32.585086,14.7924117 C32.9790816,14.9065526 33.3614911,15.0269395 33.7299837,15.153984 C37.2941112,16.3823552 39.4681826,18.1985215 39.4681826,19.5979326 C39.4681826,21.0885605 37.1202515,23.0236037 33.3078798,24.2882833 L33.3078798,24.2882833 L33.3078798,24.2882833 L33.3078798,24.2882833 Z M31.7260016,27.4264397 C32.1114274,29.375622 32.1664785,31.1379095 31.9111732,32.5155631 C31.6817824,33.7534747 31.2204641,34.5788177 30.650072,34.9093667 C29.4362749,35.6127443 26.84058,34.6984495 24.0412026,32.2867321 C23.7202885,32.0102679 23.3970435,31.7150662 23.0727701,31.4026369 C24.1580233,30.2143489 25.2426595,28.8329205 26.3012441,27.2987089 C28.1631764,27.1332973 29.9222739,26.8628729 31.5175205,26.4936821 C31.5960866,26.8109844 31.6658773,27.1221782 31.7260016,27.4264397 L31.7260016,27.4264397 L31.7260016,27.4264397 L31.7260016,27.4264397 Z M15.7289724,34.7878131 C14.5430779,35.207108 13.5985717,35.2191192 13.0276312,34.889531 C11.8127373,34.1880066 11.3076798,31.480058 11.9966064,27.8475878 C12.0755152,27.4315874 12.169438,27.0042624 12.2776891,26.5674654 C13.8554538,26.9167519 15.6016625,27.1680953 17.4680511,27.3195742 C18.5337656,28.8208406 19.6497322,30.2007592 20.7743369,31.40902 C20.5286296,31.6464991 20.2838819,31.8725849 20.0405056,32.0856297 C18.5461744,33.3933438 17.0486896,34.3211597 15.7289724,34.7878131 L15.7289724,34.7878131 L15.7289724,34.7878131 L15.7289724,34.7878131 Z M10.1732029,24.2791546 C8.29515961,23.6365196 6.74420054,22.8012931 5.68109119,21.8898812 C4.72582162,21.0708526 4.24352495,20.2577267 4.24352495,19.5979326 C4.24352495,18.1938544 6.33443691,16.4029458 9.82171249,15.1856936 C10.2448447,15.0379898 10.6877898,14.8987968 11.1474627,14.768046 C11.6294165,16.3376048 12.2616468,17.9786131 13.0246147,19.6380159 C12.2517746,21.3220587 11.6105635,22.9892175 11.1238792,24.5771703 C10.796178,24.4828651 10.4786917,24.3836181 10.1732029,24.2791546 L10.1732029,24.2791546 L10.1732029,24.2791546 L10.1732029,24.2791546 Z M12.0355467,11.5877472 C11.3117246,7.88430785 11.7924445,5.09056468 13.0021281,4.38952073 C14.290652,3.64269683 17.1399385,4.70750941 20.142998,7.37709081 C20.3349568,7.5477189 20.5276698,7.7263087 20.7209313,7.91107573 C19.6018797,9.11405177 18.4961281,10.4836064 17.4398744,11.9760187 C15.6284682,12.1441073 13.8945312,12.4141197 12.3003128,12.775692 C12.2000828,12.3720461 12.1113019,11.9754697 12.0355467,11.5877472 L12.0355467,11.5877472 L12.0355467,11.5877472 L12.0355467,11.5877472 Z M28.6493122,15.6948324 C28.2682055,15.0357935 27.876952,14.3923348 27.478089,13.7664468 C28.7069686,13.9219751 29.8843618,14.1284309 30.990045,14.3810786 C30.6580931,15.4461657 30.2443534,16.5597782 29.7573263,17.701394 C29.4079613,17.0373446 29.0384403,16.3678044 28.6493122,15.6948324 L28.6493122,15.6948324 L28.6493122,15.6948324 L28.6493122,15.6948324 Z M21.8742612,9.08831342 C22.6331843,9.9114601 23.3932043,10.8304907 24.140747,11.8276286 C23.3874455,11.7920067 22.6248203,11.7734751 21.8558881,11.7734751 C21.0942227,11.7734751 20.3372192,11.7915949 19.5885796,11.826599 C20.3368764,10.8387269 21.1034778,9.92093179 21.8742612,9.08831342 L21.8742612,9.08831342 L21.8742612,9.08831342 L21.8742612,9.08831342 Z M15.0558138,15.7062259 C14.6751182,16.3671181 14.312453,17.0330206 13.9685725,17.7001586 C13.4894294,16.5625236 13.0795287,15.4438321 12.7446976,14.3636451 C13.8435935,14.1174492 15.0154338,13.916141 16.2364979,13.7635641 C15.8320131,14.3952175 15.4375377,15.043412 15.0558138,15.7060887 L15.0558138,15.7062259 L15.0558138,15.7062259 L15.0558138,15.7062259 Z M16.2716675,25.5498054 C15.0100864,25.4088965 13.820627,25.2179524 12.7220053,24.9785513 C13.0621838,23.8790778 13.481134,22.7365012 13.9704235,21.5743632 C14.3151953,22.2410207 14.6793002,22.9071978 15.0623267,23.5695314 L15.0623952,23.5695314 C15.4525516,24.2442878 15.8567621,24.9052485 16.2716675,25.5498054 L16.2716675,25.5498054 L16.2716675,25.5498054 L16.2716675,25.5498054 Z M21.919783,30.2236833 C21.13995,29.3813187 20.3621052,28.449522 19.602428,27.4472364 C20.3398928,27.4762006 21.0917545,27.491026 21.8558881,27.491026 C22.6409313,27.491026 23.4169935,27.4733179 24.1808528,27.4392747 C23.4308419,28.4596115 22.6735643,29.3928495 21.919783,30.2236833 L21.919783,30.2236833 L21.919783,30.2236833 L21.919783,30.2236833 Z M29.7730258,21.5151307 C30.2878183,22.6898289 30.7217824,23.8264343 31.0663486,24.9071704 C29.949628,25.1622202 28.7439206,25.3676466 27.4735643,25.5202922 C27.8733873,24.8859619 28.2680683,24.2314529 28.6558936,23.5582064 C29.048244,22.8770669 29.4207813,22.1948978 29.7730258,21.5151307 L29.7730258,21.5151307 L29.7730258,21.5151307 L29.7730258,21.5151307 Z M27.2306676,22.7352657 C26.6286024,23.7803798 26.0104948,24.7780667 25.3829951,25.7198159 C24.2400856,25.8016294 23.059333,25.8437717 21.8558881,25.8437717 C20.6573107,25.8437717 19.4914347,25.8065025 18.3687496,25.7335429 C17.7159523,24.7794396 17.0844077,23.7788013 16.4861815,22.7442569 L16.4863187,22.7442569 C15.8896693,21.7125267 15.3405299,20.6720797 14.8429451,19.6374669 C15.3403928,18.6004517 15.8880925,17.5588379 16.481314,16.5289608 L16.4811769,16.5291667 C17.0759751,15.4965442 17.7019667,14.500779 18.3487309,13.5526469 C19.4941769,13.4659602 20.6687596,13.4207293 21.8558195,13.4207293 L21.8558881,13.4207293 C23.0482953,13.4207293 24.2243862,13.4663034 25.3694893,13.5537451 C26.0063814,14.494945 26.6281226,15.4874843 27.2252518,16.5202441 C27.8291681,17.5646033 28.3839291,18.5992847 28.8856273,19.6140622 C28.3854375,20.6462727 27.8319104,21.691387 27.2306676,22.7352657 L27.2306676,22.7352657 L27.2306676,22.7352657 L27.2306676,22.7352657 Z M30.6248432,4.34051491 C31.9146012,5.08514246 32.4161622,8.0882242 31.6058216,12.0261913 C31.5541297,12.2774663 31.4959253,12.5334084 31.4327158,12.7927823 C29.8347953,12.4236601 28.0996243,12.1489804 26.2829395,11.9783523 C25.224629,10.4695361 24.1279268,9.09785376 23.0271112,7.91032072 C23.3230708,7.62527713 23.6186189,7.35348017 23.9129328,7.09698897 C26.7563922,4.61958723 29.4139941,3.64146139 30.6248432,4.34051491 L30.6248432,4.34051491 L30.6248432,4.34051491 L30.6248432,4.34051491 Z" id="Shape" fill="#FFFFFF"></path>
                        <path d="M21.8558881,16.1546909 C23.755321,16.1546909 25.2951738,17.6962463 25.2951738,19.5979326 C25.2951738,21.4995503 23.755321,23.0411746 21.8558881,23.0411746 C19.9564551,23.0411746 18.4166022,21.4995503 18.4166022,19.5979326 C18.4166022,17.6962463 19.9564551,16.1546909 21.8558881,16.1546909" id="Shape" fill-opacity="0.54" fill="#000000"></path>
                    </g>
                </g>
            </g>
        </g>
    </g>
</svg>