<?xml version="1.0" encoding="UTF-8" standalone="no"?>
<svg width="44px" height="28px" viewBox="0 0 44 28" version="1.1" xmlns="http://www.w3.org/2000/svg" xmlns:xlink="http://www.w3.org/1999/xlink">
    <!-- Generator: Sketch 3.6.1 (26313) - http://www.bohemiancoding.com/sketch -->
    <title>icon</title>
    <desc>Created with Sketch.</desc>
    <defs></defs>
    <g id="Page-1" stroke="none" stroke-width="1" fill="none" fill-rule="evenodd" fill-opacity="0.54">
        <g id="About" transform="translate(-490.000000, -430.000000)" fill="#000000">
            <g id="about" transform="translate(33.000000, 137.000000)">
                <g id="p" transform="translate(326.000000, 293.000000)">
                    <g id="icon" transform="translate(131.000000, 0.000000)">
                        <path d="M40.7271111,18.8888889 L13.3151111,18.8888889 C12.2617778,18.8888889 12.2617778,20.5204444 13.3151111,20.5204444 L40.7271111,20.5204444 C41.7804444,20.52 41.7804444,18.8888889 40.7271111,18.8888889 L40.7271111,18.8888889 L40.7271111,18.8888889 Z" id="Shape"></path>
                        <path d="M42.7951111,14.2417778 L17.4484444,14.2417778 C16.4368889,14.2417778 16.4368889,15.8111111 17.4484444,15.8111111 L42.7951111,15.8111111 C43.8057778,15.8111111 43.8057778,14.2417778 42.7951111,14.2417778 L42.7951111,14.2417778 L42.7951111,14.2417778 Z" id="Shape"></path>
                        <path d="M37.7902222,9.64222222 L10.3777778,9.64222222 C9.32488889,9.64222222 9.32488889,11.2733333 10.3777778,11.2733333 L37.7902222,11.2733333 C38.8426667,11.2742222 38.8426667,9.64222222 37.7902222,9.64222222 L37.7902222,9.64222222 L37.7902222,9.64222222 Z" id="Shape"></path>
                        <path d="M12.3351111,27.8626667 C8.37644444,27.8626667 5.15555556,24.6417778 5.15555556,20.6831111 C5.15555556,20.4573333 5.17866667,20.2573333 5.208,20.0755556 C2.35422222,19.0928889 0.368888889,16.3782222 0.368888889,13.2866667 C0.368888889,9.32711111 3.58977778,6.10666667 7.54888889,6.10666667 C7.77733333,6.10666667 8.00577778,6.11688889 8.23288889,6.13866667 C8.75955556,2.71822222 11.6631111,0.178222222 15.272,0.178222222 C18.668,0.178222222 21.6266667,2.58977778 22.3057778,5.912 C22.4071111,6.412 22.0853333,6.90133333 21.5848889,7.00355556 C21.0857778,7.10444444 20.5942222,6.78311111 20.4924444,6.28177778 C19.9888889,3.81644444 17.7928889,2.028 15.2706667,2.028 C12.3128889,2.028 9.996,4.32711111 9.996,7.26222222 C9.996,7.56888889 9.84444444,7.85644444 9.58933333,8.02888889 C9.33555556,8.20044444 9.01244444,8.23555556 8.72755556,8.12177778 L8.54533333,8.04888889 C8.21866667,7.98711111 7.88355556,7.95555556 7.548,7.95555556 C4.60888889,7.95555556 2.21822222,10.3462222 2.21822222,13.2862222 C2.21822222,15.8275556 4.02444444,18.0266667 6.51333333,18.516 C6.78755556,18.5693333 7.02222222,18.7453333 7.15288889,18.9902222 C7.28311111,19.2377778 7.29511111,19.5302222 7.18577778,19.7871111 L7.10711111,19.9711111 C7.09688889,20.0262222 7.08577778,20.0804444 7.07555556,20.1342222 C7.03555556,20.3422222 7.00355556,20.5066667 7.00355556,20.6826667 C7.00355556,23.6217778 9.39422222,26.0124444 12.3333333,26.0124444 C14.504,26.0124444 16.44,24.7164444 17.2662222,22.7084444 C17.4595556,22.236 18.0004444,22.0102222 18.4728889,22.2044444 C18.9453333,22.3986667 19.1711111,22.9391111 18.9764444,23.4115556 C17.8666667,26.1164444 15.2591111,27.8626667 12.3351111,27.8626667 L12.3351111,27.8626667 Z" id="Shape"></path>
                    </g>
                </g>
            </g>
        </g>
    </g>
</svg>