<?xml version="1.0" encoding="UTF-8" standalone="no"?>
<svg width="29px" height="32px" viewBox="0 0 29 32" version="1.1" xmlns="http://www.w3.org/2000/svg" xmlns:xlink="http://www.w3.org/1999/xlink">
    <!-- Generator: Sketch 3.6.1 (26313) - http://www.bohemiancoding.com/sketch -->
    <title>icon</title>
    <desc>Created with Sketch.</desc>
    <defs></defs>
    <g id="Page-1" stroke="none" stroke-width="1" fill="none" fill-rule="evenodd" fill-opacity="0.54">
        <g id="About" transform="translate(-826.000000, -327.000000)" fill="#000000">
            <g id="about" transform="translate(33.000000, 137.000000)">
                <g id="p" transform="translate(654.000000, 190.000000)">
                    <g id="icon" transform="translate(139.000000, 0.000000)">
                        <path d="M25.3176471,3.71764706 L25.3176471,3.34117647 C25.3176471,1.6 23.9529412,0.188235294 22.3058824,0.188235294 L3.10588235,0.188235294 C1.45882353,0.188235294 0.0941176471,1.6 0.0941176471,3.34117647 L0.0941176471,25.7882353 C0.0941176471,27.4352941 1.31764706,28.8 2.91764706,28.9411765 C2.96470588,30.5411765 4.28235294,31.8588235 5.92941176,31.8588235 L23.8117647,31.8588235 C26.2117647,31.8588235 28.1411765,29.9294118 28.1411765,27.5294118 L28.1411765,6.72941176 C28.1411765,5.12941176 26.8705882,3.81176471 25.3176471,3.71764706 L25.3176471,3.71764706 Z M26.9647059,27.4823529 C26.9647059,29.2235294 25.5529412,30.6352941 23.8117647,30.6352941 L5.92941176,30.6352941 C4.94117647,30.6352941 4.14117647,29.8823529 4.09411765,28.8941176 L22.3058824,28.8941176 C23.9529412,28.8941176 25.3176471,27.4823529 25.3176471,25.7411765 L25.3176471,4.89411765 C26.2117647,4.98823529 26.9647059,5.78823529 26.9647059,6.72941176 L26.9647059,27.4823529 L26.9647059,27.4823529 Z M1.27058824,3.34117647 C1.27058824,2.25882353 2.07058824,1.36470588 3.10588235,1.36470588 L22.3058824,1.36470588 C23.2941176,1.36470588 24.1411765,2.25882353 24.1411765,3.34117647 L24.1411765,3.71764706 L24.1411765,4.28235294 L24.1411765,4.84705882 L24.1411765,25.7411765 C24.1411765,26.8235294 23.3411765,27.7176471 22.3058824,27.7176471 L4.09411765,27.7176471 L3.52941176,27.7176471 L3.15294118,27.7176471 L2.96470588,27.7176471 C2.07058824,27.6235294 1.31764706,26.7764706 1.31764706,25.7882353 L1.31764706,3.34117647 L1.27058824,3.34117647 Z" id="Shape"></path>
                        <path d="M2.91764706,10.4 L3.01176471,10.4 L3.52941176,10.4 L4.09411765,10.4 L9.31764706,10.4 L9.31764706,24.7529412 C9.31764706,25.0823529 9.6,25.3176471 9.88235294,25.3176471 L15.5294118,25.3176471 C15.8588235,25.3176471 16.0941176,25.0352941 16.0941176,24.7529412 L16.0941176,10.4470588 L22.4470588,10.4470588 L22.4470588,10.4470588 C22.7764706,10.4470588 23.0117647,10.1647059 23.0117647,9.88235294 C23.0117647,9.74117647 22.9647059,9.64705882 22.9176471,9.55294118 L22.0235294,7.48235294 C21.9294118,7.29411765 21.7882353,7.15294118 21.6,7.15294118 C21.6,7.15294118 20.1882353,6.87058824 19.1058824,6.44705882 C17.6941176,5.88235294 16.8470588,5.31764706 16.4235294,4.94117647 C16.0941176,4.65882353 15.9529412,4.51764706 15.9529412,4.51764706 L15.9058824,4.47058824 L15.8588235,4.42352941 L15.8117647,4.37647059 C15.8117647,4.37647059 15.7647059,4.37647059 15.7647059,4.32941176 C15.7647059,4.32941176 15.7176471,4.32941176 15.7176471,4.28235294 C15.6705882,4.23529412 15.5764706,4.23529412 15.5294118,4.23529412 L15.5294118,4.23529412 L9.92941176,4.23529412 C9.88235294,4.23529412 9.83529412,4.23529412 9.78823529,4.28235294 L9.74117647,4.28235294 C9.69411765,4.28235294 9.64705882,4.32941176 9.6,4.32941176 C9.55294118,4.32941176 9.55294118,4.37647059 9.50588235,4.42352941 L9.45882353,4.47058824 C9.45882353,4.47058824 9.45882353,4.47058824 9.41176471,4.51764706 C9.36470588,4.56470588 9.22352941,4.70588235 8.98823529,4.94117647 C8.51764706,5.31764706 7.67058824,5.92941176 6.30588235,6.44705882 C5.50588235,6.77647059 4.56470588,7.01176471 4.09411765,7.10588235 C3.95294118,7.15294118 3.81176471,7.15294118 3.81176471,7.15294118 C3.67058824,7.15294118 3.57647059,7.24705882 3.48235294,7.34117647 C3.43529412,7.38823529 3.38823529,7.43529412 3.38823529,7.48235294 L2.91764706,8.56470588 L2.44705882,9.64705882 C2.35294118,9.83529412 2.4,10.0235294 2.49411765,10.2117647 C2.58823529,10.3058824 2.72941176,10.4 2.91764706,10.4 L2.91764706,10.4 Z M14.9176471,24.1882353 L10.4941176,24.1882353 L10.4941176,9.92941176 L10.4941176,9.83529412 L10.4941176,5.36470588 L14.8705882,5.36470588 L14.8705882,13.3176471 L13.6470588,13.3176471 C13.3176471,13.3176471 13.0823529,13.6 13.0823529,13.8823529 C13.0823529,14.2117647 13.3647059,14.4470588 13.6470588,14.4470588 L14.9176471,14.4470588 L14.9176471,16.0470588 L13.6470588,16.0470588 C13.3176471,16.0470588 13.0823529,16.3294118 13.0823529,16.6117647 C13.0823529,16.9411765 13.3647059,17.1764706 13.6470588,17.1764706 L14.9176471,17.1764706 L14.9176471,18.7764706 L13.6470588,18.7764706 C13.3176471,18.7764706 13.0823529,19.0588235 13.0823529,19.3411765 C13.0823529,19.6705882 13.3647059,19.9058824 13.6470588,19.9058824 L14.9176471,19.9058824 L14.9176471,24.1882353 L14.9176471,24.1882353 Z M18.6823529,7.48235294 C19.5764706,7.81176471 20.5647059,8.09411765 21.0823529,8.18823529 L21.5529412,9.22352941 L16.0941176,9.22352941 L16.0941176,6.11764706 C16.6588235,6.54117647 17.5058824,7.01176471 18.6823529,7.48235294 L18.6823529,7.48235294 Z M4.09411765,8.8 L4.32941176,8.18823529 C4.84705882,8.09411765 5.83529412,7.85882353 6.72941176,7.48235294 C7.90588235,7.01176471 8.75294118,6.49411765 9.31764706,6.11764706 L9.31764706,9.27058824 L4.09411765,9.27058824 L3.90588235,9.27058824 L4.09411765,8.8 L4.09411765,8.8 Z" id="Shape"></path>
                        <ellipse id="Oval" cx="12.7058824" cy="7.81176471" rx="0.894117647" ry="0.894117647"></ellipse>
                        <path d="M21.6,17.6 L18.5882353,17.6 C18.2588235,17.6 18.0235294,17.8823529 18.0235294,18.1647059 C18.0235294,18.4941176 18.3058824,18.7294118 18.5882353,18.7294118 L21.6,18.7294118 C21.9294118,18.7294118 22.1647059,18.4470588 22.1647059,18.1647059 C22.2117647,17.8823529 21.9294118,17.6 21.6,17.6 L21.6,17.6 Z" id="Shape"></path>
                        <path d="M21.6,20.6588235 L18.5882353,20.6588235 C18.2588235,20.6588235 18.0235294,20.9411765 18.0235294,21.2235294 C18.0235294,21.5529412 18.3058824,21.7882353 18.5882353,21.7882353 L21.6,21.7882353 C21.9294118,21.7882353 22.1647059,21.5058824 22.1647059,21.2235294 C22.2117647,20.8941176 21.9294118,20.6588235 21.6,20.6588235 L21.6,20.6588235 Z" id="Shape"></path>
                        <path d="M21.6,23.6705882 L18.5882353,23.6705882 C18.2588235,23.6705882 18.0235294,23.9529412 18.0235294,24.2352941 C18.0235294,24.5647059 18.3058824,24.8 18.5882353,24.8 L21.6,24.8 C21.9294118,24.8 22.1647059,24.5176471 22.1647059,24.2352941 C22.2117647,23.9529412 21.9294118,23.6705882 21.6,23.6705882 L21.6,23.6705882 Z" id="Shape"></path>
                    </g>
                </g>
            </g>
        </g>
    </g>
</svg>