<?xml version="1.0" encoding="UTF-8" standalone="no"?>
<svg width="390px" height="234px" viewBox="0 0 390 234" version="1.1" xmlns="http://www.w3.org/2000/svg" xmlns:xlink="http://www.w3.org/1999/xlink">
    <!-- Generator: Sketch 3.6.1 (26313) - http://www.bohemiancoding.com/sketch -->
    <title>browser</title>
    <desc>Created with Sketch.</desc>
    <defs></defs>
    <g id="Page-1" stroke="none" stroke-width="1" fill="none" fill-rule="evenodd">
        <g id="Portfolio" transform="translate(-323.000000, -263.000000)">
            <g id="project" transform="translate(219.000000, 263.000000)">
                <g id="browser" transform="translate(104.000000, 0.000000)">
                    <rect id="Rectangle-10" stroke-opacity="0.499207428" stroke="#FFFFFF" x="0" y="0" width="390" height="234" rx="2"></rect>
                    <g id="toolbar">
                        <rect fill-opacity="0.7" fill="#FFFFFF" x="0" y="0" width="390" height="20.2427441" rx="2"></rect>
                        <g id="window-buttons" transform="translate(7.208872, 7.952507)" fill="#000000" fill-opacity="0.38">
                            <ellipse id="Oval-14" cx="2.52310536" cy="2.53034301" rx="2.52310536" ry="2.53034301"></ellipse>
                            <ellipse id="Oval-14" cx="18.3826248" cy="2.53034301" rx="2.52310536" ry="2.53034301"></ellipse>
                            <ellipse id="Oval-14" cx="10.4528651" cy="2.53034301" rx="2.52310536" ry="2.53034301"></ellipse>
                        </g>
                    </g>
                    <g id="logo" transform="translate(25.000000, 44.000000)" fill="#FFFFFF" fill-opacity="0.499207428">
                        <rect id="Rectangle-45" x="0" y="0" width="48" height="2"></rect>
                        <rect id="Rectangle-45" x="0" y="6" width="72" height="1"></rect>
                    </g>
                    <g id="Skills" transform="translate(24.000000, 97.000000)" fill="#FFFFFF" fill-opacity="0.499207428">
                        <g id="skill" transform="translate(1.443299, 21.000000)">
                            <rect id="Rectangle-45" x="0" y="0" width="46.185567" height="2"></rect>
                            <rect id="Rectangle-45" x="0" y="7" width="138.556701" height="1"></rect>
                            <rect id="Rectangle-45" x="0" y="13" width="138.556701" height="1"></rect>
                        </g>
                        <g id="skill" transform="translate(1.443299, 51.000000)">
                            <rect id="Rectangle-45" x="0" y="0" width="46.185567" height="2"></rect>
                            <rect id="Rectangle-45" x="0" y="7" width="138.556701" height="1"></rect>
                            <rect id="Rectangle-45" x="0" y="13" width="138.556701" height="1"></rect>
                        </g>
                        <g id="skill" transform="translate(1.443299, 81.000000)">
                            <rect id="Rectangle-45" x="0" y="0" width="46.185567" height="2"></rect>
                            <rect id="Rectangle-45" x="0" y="7" width="138.556701" height="1"></rect>
                            <rect id="Rectangle-45" x="0" y="13" width="138.556701" height="1"></rect>
                        </g>
                        <rect id="title" x="0" y="0" width="85.1546392" height="4"></rect>
                    </g>
                    <g id="CHART" transform="translate(239.000000, 86.000000)" stroke-opacity="0.499207428" stroke="#FFFFFF">
                        <polygon id="Combined-Shape" points="50 0 100 36.5113203 80.9016994 95.5878775 19.0983006 95.5878775 -1.0658141e-13 36.5113203 "></polygon>
                        <path d="M75.8494732,89.4657198 L29.1427857,82.5749293 C29.0773473,81.764198 28.4019765,81.1267606 27.5784753,81.1267606 C27.4194184,81.1267606 27.2658876,81.1505407 27.1212104,81.1947566 L7.81376999,39.8529511 C8.23935445,39.5707974 8.52017937,39.0859657 8.52017937,38.5352113 C8.52017937,38.4970428 8.51883063,38.459191 8.51617844,38.4217013 L48.5299691,29.6243031 C48.7531131,30.2222852 49.3271049,30.6478873 50,30.6478873 C50.7284852,30.6478873 51.3410507,30.1490596 51.5180093,29.4727125 L80.014933,40.9292785 C79.8910976,41.1548963 79.8206278,41.4142473 79.8206278,41.6901408 C79.8206278,42.4263604 80.322432,43.044783 81.0010313,43.2187516 L77.2598271,88.3408364 C76.5901819,88.3807774 76.0335378,88.8427035 75.8494732,89.4657198 Z M75.7847578,89.9117062 L29.1152224,83.0263968 C28.9672443,83.7430976 28.33544,84.2816901 27.5784753,84.2816901 C26.7116607,84.2816901 26.0089686,83.5754351 26.0089686,82.7042254 C26.0089686,82.1534709 26.2897935,81.6686392 26.715378,81.3864855 L7.40793759,40.04468 C7.26326042,40.0888959 7.1097296,40.1126761 6.95067265,40.1126761 C6.08385802,40.1126761 5.38116592,39.406421 5.38116592,38.5352113 C5.38116592,37.6640015 6.08385802,36.9577465 6.95067265,36.9577465 C7.6235677,36.9577465 8.19755953,37.3833486 8.42070352,37.9813307 L48.4344942,29.1839325 C48.431842,29.1464428 48.4304933,29.108591 48.4304933,29.0704225 C48.4304933,28.1992128 49.1331854,27.4929577 50,27.4929577 C50.8458476,27.4929577 51.5354165,28.1654594 51.5682809,29.0074998 L80.2976814,40.557528 C80.58023,40.282174 80.9654879,40.1126761 81.3901345,40.1126761 C82.2569492,40.1126761 82.9596413,40.8189311 82.9596413,41.6901408 C82.9596413,42.542201 82.2875007,43.2364783 81.4470499,43.2665877 L77.7067335,88.3779644 C78.4038268,88.5387364 78.9237668,89.1660876 78.9237668,89.915493 C78.9237668,90.7867027 78.2210747,91.4929577 77.3542601,91.4929577 C76.4874455,91.4929577 75.7847534,90.7867027 75.7847534,89.915493 C75.7847534,89.9142303 75.7847548,89.9129681 75.7847578,89.9117062 Z M81.1529251,41.3867834 L81.0010313,43.2187516 C81.1254565,43.2506497 81.2558254,43.2676056 81.3901345,43.2676056 C81.4091875,43.2676056 81.4281612,43.2672644 81.4470499,43.2665877 L81.6135753,41.2581511 L81.3901345,41.2394366 L81.3068631,41.4486708 L81.1529251,41.3867834 Z M48.4344942,29.1839325 C48.4453851,29.3378797 48.4782554,29.4857205 48.5299691,29.6243031 L50.0479141,29.290569 L49.9520859,28.8502761 L48.4344942,29.1839325 Z M80.2976814,40.557528 C80.1861207,40.6662481 80.090572,40.7914707 80.014933,40.9292785 L81.1529251,41.3867834 L81.1666938,41.2207221 L81.3901345,41.2394366 L81.473406,41.0302024 L80.2976814,40.557528 Z M51.5682809,29.0074998 C51.5690956,29.0283724 51.5695067,29.0493492 51.5695067,29.0704225 C51.5695067,29.2094534 51.5516113,29.3442833 51.5180093,29.4727125 L49.9167285,28.8289525 L50.0832715,28.4104841 L51.5682809,29.0074998 Z M8.51617844,38.4217013 L7.27299624,38.6950263 L7.81376999,39.8529511 C7.68967586,39.9352229 7.55327398,40.0002627 7.40793759,40.04468 L6.74770472,38.630965 L6.95067265,38.5352113 L6.90275855,38.3150648 L8.42070352,37.9813307 C8.47241723,38.1199133 8.50528751,38.2677541 8.51617844,38.4217013 Z M7.27299624,38.6950263 L6.99858674,38.7553578 L6.95067265,38.5352113 L7.15364057,38.4394575 L7.27299624,38.6950263 Z M29.1427857,82.5749293 L28.5078997,82.4812625 L28.4427729,82.9271882 L29.1152224,83.0263968 C29.1366968,82.92239 29.1479821,82.8146323 29.1479821,82.7042254 C29.1479821,82.6606923 29.1462275,82.6175711 29.1427857,82.5749293 Z M26.715378,81.3864855 L27.3755074,82.7999791 L27.7814433,82.6084716 L27.1212104,81.1947566 C26.975874,81.2391739 26.8394721,81.3042137 26.715378,81.3864855 Z M75.8494732,89.4657198 L77.1506432,89.6576857 L77.2598271,88.3408364 C77.2910676,88.3389731 77.322554,88.3380282 77.3542601,88.3380282 C77.4754499,88.3380282 77.5934317,88.3518333 77.7067335,88.3779644 L77.5777008,89.9342074 L77.3542601,89.915493 L77.3216967,90.1384558 L75.7847578,89.9117062 C75.78512,89.7567808 75.807703,89.6071024 75.8494732,89.4657198 Z M77.3542601,89.915493 L77.3868235,89.6925301 L77.1506432,89.6576857 L77.1308193,89.8967785 L77.3542601,89.915493 Z" id="Combined-Shape" stroke-width="2"></path>
                    </g>
                </g>
            </g>
        </g>
    </g>
</svg>