<svg xmlns="http://www.w3.org/2000/svg" xmlns:xlink="http://www.w3.org/1999/xlink" version="1.1" x="0px" y="0px" viewBox="0 0 100 125" style="enable-background:new 0 0 100 100;" xml:space="preserve"><style type="text/css">
	.st0{fill:none;stroke:#FFFFFF;stroke-linecap:round;stroke-miterlimit:10;}
</style><g><g><path d="M50,5C20,5,5,20.6,5,50c0,30.3,15,45,45,45c29.7,0,45-14.4,45-45C95,20.3,80,5,50,5z M50,90.5C22.4,90.5,9.5,77.6,9.5,50    C9.5,22.7,22.7,9.5,50,9.5S90.5,22.7,90.5,50C90.5,77.6,77.6,90.5,50,90.5z"/></g></g><g><g><ellipse cx="27.5" cy="63.5" rx="4.5" ry="2.2"/></g></g><g><g><ellipse cx="72.5" cy="63.5" rx="4.5" ry="2.2"/></g></g><g><g><path d="M56.8,65.8c-1.2,0-2.2,1-2.2,2.2c0,2.5-2,4.5-4.5,4.5s-4.5-2-4.5-4.5c0-1.2-1-2.2-2.2-2.2S41,66.8,41,68c0,5,4,9,9,9    s9-4,9-9C59,66.8,58,65.8,56.8,65.8z"/></g></g><g><g><path d="M68,41c-2.5,0-4.5,2-4.5,4.5v9c0,2.5,2,4.5,4.5,4.5c2.5,0,4.5-2,4.5-4.5v-9C72.5,43,70.5,41,68,41z"/></g></g><g><g><path d="M32,41c-2.5,0-4.5,2-4.5,4.5v9c0,2.5,2,4.5,4.5,4.5c2.5,0,4.5-2,4.5-4.5v-9C36.5,43,34.5,41,32,41z"/></g></g></svg>
